Rango 2011 EXTENDED SWESUB 720p BluRay x264-ASPiRE
 
http://www.imdb.com/title/tt1192628/

Handling:

Historien följer kameleonten Rangos komiska och livsförändrande resa. 
Rango lever ett liv i trygghet som ett vanligt husdjur hemma hos en vanlig familj. 
Samtidigt lider han av en stor identitetskris. För hur högt kan man egentligen 
sikta när hela ens liv består av att smälta in? När Rango av en händelse hamnar 
i den sandiga, pistoltäta byn Dirt – en laglös utpost bebodd av öknens mest sluga 
och originella varelser – inser den allt annat än modige ödlan att han plötsligt 
sticker ut ur mängden. Välkomnad som stans sista hopp tvingas han ta sig an sin 
nya roll som dess nya sheriff… och efter en kanonad av actionfyllda situationer 
och möten börjar Rango bli den hjälte han en gång i tiden endast drömde om att vara.

iNFO:

Genre: Animerat, Äventyr, Komedi
Regi: Gore Verbinski
Medverkande: Johnny Depp, Isla Fisher, Timothy Olyphant, Ned Beatty
Produktionsland: USA
Språk: Engelska
Text: Svenska

General:
Format                           : Matroska
File size                        : 4.37 GiB
Duration                         : 1h 51mn
Overall bit rate                 : 5 591 Kbps

Video:
ID                               : 1
Format                           : AVC
Format/Info                      : Advanced Video Codec
Format profile                   : High@L4.1
Format settings, CABAC           : Yes
Format settings, ReFrames        : 5 frames
Muxing mode                      : Header stripping
Codec ID                         : V_MPEG4/ISO/AVC
Duration                         : 1h 51mn
Bit rate                         : 4 086 Kbps
Width                            : 1 280 pixels
Height                           : 536 pixels
Display aspect ratio             : 2.35:1
Frame rate                       : 23.976 fps
Color space                      : YUV
Chroma subsampling               : 4:2:0
Bit depth                        : 8 bits
Scan type                        : Progressive
Bits/(Pixel*Frame)               : 0.248
Stream size                      : 3.10 GiB (71%)
Language                         : English

Audio:
ID                               : 2
Format                           : DTS
Format/Info                      : Digital Theater Systems
Muxing mode                      : Header stripping
Codec ID                         : A_DTS
Duration                         : 1h 51mn
Bit rate mode                    : Constant
Bit rate                         : 1 510 Kbps
Channel(s)                       : 6 channels
Channel positions                : Front: L C R, Side: L R, LFE
Sampling rate                    : 48.0 KHz
Bit depth                        : 24 bits
Compression mode                 : Lossy
Stream size                      : 1.18 GiB (27%)
Language                         : English

Enjoy, ASPiRE